<svg width="259" height="259" viewBox="0 0 259 259" fill="none" xmlns="http://www.w3.org/2000/svg">
<path d="M257.698 71.6073L241.573 125.342C240.672 128.345 237.905 130.402 234.775 130.402H181.413C176.663 130.402 173.251 125.815 174.616 121.265L190.741 67.5306C191.641 64.5276 194.408 62.4711 197.538 62.4711H250.9C255.65 62.4711 259.063 67.0574 257.698 71.6073ZM166.326 128.509C138.371 114.022 162.176 62.0707 115.63 62.4711C112.527 62.4984 109.806 64.5549 108.914 67.5306L91.5699 125.342C90.669 128.345 87.9027 130.402 84.7723 130.402H27.1518C24.0214 130.402 21.2551 132.458 20.3542 135.461L4.22917 189.196C2.86419 193.746 6.27665 198.332 11.0268 198.332H64.3886C67.5189 198.332 70.2853 196.276 71.1862 193.273L87.6388 138.437C89.0402 133.769 94.6366 131.858 98.586 134.715C121.6 151.377 101.471 199.215 146.151 198.824C149.254 198.797 151.975 196.74 152.867 193.764L169.929 136.872C170.921 133.578 169.383 130.083 166.326 128.5V128.509Z" fill="#353535"/>
<path d="M253.772 69.1386L237.647 122.873C236.746 125.876 233.98 127.933 230.849 127.933H177.487C172.737 127.933 169.325 123.347 170.69 118.797L186.815 65.0618C187.716 62.0589 190.482 60.0023 193.612 60.0023H246.974C251.724 60.0023 255.137 64.5886 253.772 69.1386ZM162.4 126.04C134.445 111.553 158.25 59.6019 111.704 60.0023C108.601 60.0296 105.88 62.0862 104.989 65.0618L87.6442 122.873C86.7433 125.876 83.9769 127.933 80.8465 127.933H23.226C20.0957 127.933 17.3293 129.99 16.4284 132.993L0.303389 186.727C-1.06159 191.277 2.35087 195.864 7.10101 195.864H60.4628C63.5931 195.864 66.3595 193.807 67.2604 190.804L83.713 135.968C85.1144 131.3 90.7108 129.389 94.6602 132.246C117.674 148.908 97.5448 196.746 142.225 196.355C145.328 196.328 148.049 194.271 148.941 191.296L166.003 134.403C166.995 131.109 165.457 127.615 162.4 126.031V126.04Z" fill="url(#paint0_radial_271_285)"/>
<defs>
<radialGradient id="paint0_radial_271_285" cx="0" cy="0" r="1" gradientUnits="userSpaceOnUse" gradientTransform="translate(35.6747 -7.60081) scale(305.938 305.938)">
<stop offset="0.35" stop-color="#A9DCD6"/>
<stop offset="0.73" stop-color="#4EBEC7"/>
</radialGradient>
</defs>
</svg>
