<svg width="3456" height="522" viewBox="0 0 3456 522" fill="none" xmlns="http://www.w3.org/2000/svg">
<path d="M724 421.25V84.3301H796.13L941.34 337.73V84.3301H1003.03V421.25H929L785.69 174.97V421.25H724Z" fill="white"/>
<path d="M1037.19 134.161V80.0605H1100.3V134.161H1037.19ZM1038.14 421.251V167.851H1098.88V421.251H1038.14Z" fill="white"/>
<path d="M1141.11 421.25V167.85H1196.16L1198.06 230.01L1192.37 227.16C1195.22 213.56 1200.2 201.94 1207.32 192.28C1214.44 182.63 1223.14 175.2 1233.42 169.98C1243.7 164.76 1255.01 162.15 1267.35 162.15C1288.86 162.15 1306.26 168.24 1319.55 180.42C1332.84 192.6 1341.22 209.29 1344.7 230.48H1336.63C1339.48 215.61 1344.38 203.19 1351.34 193.23C1358.29 183.26 1367.07 175.6 1377.68 170.22C1388.27 164.84 1400.22 162.15 1413.51 162.15C1430.9 162.15 1445.93 165.87 1458.59 173.3C1471.24 180.74 1480.97 191.57 1487.77 205.81C1494.57 220.05 1497.97 237.6 1497.97 258.48V421.24H1437.23V274.14C1437.23 253.26 1433.67 237.6 1426.55 227.16C1419.43 216.72 1408.59 211.5 1394.04 211.5C1384.23 211.5 1375.84 214.04 1368.89 219.09C1361.93 224.15 1356.63 231.51 1352.99 241.16C1349.35 250.81 1347.53 262.44 1347.53 276.04V421.25H1291.06V276.04C1291.06 255.16 1287.89 239.19 1281.57 228.11C1275.24 217.04 1264.32 211.5 1248.83 211.5C1239.02 211.5 1230.72 214.04 1223.92 219.09C1217.11 224.15 1211.74 231.51 1207.79 241.16C1203.83 250.81 1201.86 262.44 1201.86 276.04V421.25H1141.12H1141.11Z" fill="white"/>
<path d="M1667.84 426.94C1650.12 426.94 1634.7 423.14 1621.57 415.55C1608.44 407.96 1598.24 397.36 1590.96 383.76L1589.54 421.25H1531.65V84.3301H1592.39V203.91C1599.34 192.21 1609.31 182.32 1622.29 174.25C1635.26 166.18 1650.44 162.15 1667.84 162.15C1689.67 162.15 1708.57 167.61 1724.55 178.52C1740.52 189.43 1752.86 204.78 1761.56 224.55C1770.26 244.32 1774.61 267.66 1774.61 294.54C1774.61 321.42 1770.26 344.77 1761.56 364.53C1752.86 384.3 1740.52 399.65 1724.55 410.56C1708.57 421.47 1689.67 426.93 1667.84 426.93V426.94ZM1654.08 377.59C1671.47 377.59 1685.4 370.23 1695.84 355.52C1706.28 340.81 1711.5 320.49 1711.5 294.54C1711.5 268.59 1706.35 247.88 1696.08 233.33C1685.8 218.78 1671.95 211.5 1654.56 211.5C1641.58 211.5 1630.43 214.75 1621.11 221.23C1611.77 227.72 1604.66 237.13 1599.76 249.46C1594.85 261.8 1592.4 276.83 1592.4 294.54C1592.4 312.25 1594.85 326.42 1599.76 338.91C1604.66 351.41 1611.7 360.98 1620.88 367.62C1630.05 374.26 1641.12 377.59 1654.1 377.59H1654.08Z" fill="white"/>
<path d="M1876.63 426.94C1851.01 426.94 1830.67 418.48 1815.65 401.55C1800.62 384.63 1793.11 361.14 1793.11 331.08V167.85H1853.85V315.9C1853.85 337.1 1857.41 352.68 1864.53 362.64C1871.65 372.61 1882.48 377.59 1897.04 377.59C1913.49 377.59 1926.22 372.13 1935.24 361.22C1944.26 350.31 1948.76 334.41 1948.76 313.53V167.85H2009.5V421.25H1953.98L1952.56 351.49L1960.15 353.86C1956.35 377.91 1947.34 396.09 1933.1 408.43C1918.86 420.77 1900.04 426.94 1876.63 426.94Z" fill="white"/>
<path d="M2146.16 426.941C2121.17 426.941 2100.2 423.301 2083.28 416.031C2066.35 408.761 2053.3 398.641 2044.13 385.661C2034.95 372.691 2029.73 357.981 2028.47 341.531L2090.63 338.681C2092.84 351.971 2098.38 362.251 2107.24 369.521C2116.09 376.801 2129.22 380.431 2146.63 380.431C2160.87 380.431 2172.02 378.141 2180.08 373.551C2188.15 368.971 2192.18 361.771 2192.18 351.961C2192.18 346.271 2190.76 341.521 2187.91 337.721C2185.06 333.921 2179.68 330.601 2171.78 327.751C2163.87 324.901 2152.16 322.061 2136.66 319.211C2110.72 314.781 2090.31 309.331 2075.45 302.841C2060.58 296.361 2050.06 288.211 2043.89 278.401C2037.72 268.601 2034.64 256.421 2034.64 241.861C2034.64 218.131 2043.73 198.921 2061.93 184.201C2080.12 169.491 2106.77 162.131 2141.89 162.131C2164.67 162.131 2183.8 165.851 2199.31 173.281C2214.81 180.721 2226.91 190.841 2235.61 203.651C2244.31 216.461 2249.76 231.101 2251.98 247.541L2190.77 250.391C2189.18 241.851 2186.34 234.421 2182.23 228.091C2178.11 221.771 2172.58 216.941 2165.62 213.621C2158.66 210.301 2150.44 208.641 2140.94 208.641C2126.7 208.641 2115.95 211.491 2108.67 217.181C2101.39 222.871 2097.76 230.471 2097.76 239.961C2097.76 246.601 2099.42 252.141 2102.74 256.571C2106.06 261.001 2111.52 264.561 2119.11 267.251C2126.7 269.941 2136.82 272.401 2149.48 274.611C2176.05 278.721 2197.01 284.031 2212.36 290.511C2227.7 297.001 2238.62 305.221 2245.1 315.191C2251.58 325.161 2254.83 337.101 2254.83 351.021C2254.83 367.151 2250.32 380.921 2241.31 392.301C2232.29 403.691 2219.64 412.311 2203.35 418.161C2187.05 424.011 2168 426.941 2146.17 426.941H2146.16Z" fill="white"/>
<path d="M724 421.25V84.3301H796.13L941.34 337.73V84.3301H1003.03V421.25H929L785.69 174.97V421.25H724Z" fill="white"/>
<path d="M1037.19 134.161V80.0605H1100.3V134.161H1037.19ZM1038.14 421.251V167.851H1098.88V421.251H1038.14Z" fill="white"/>
<path d="M1141.11 421.25V167.85H1196.16L1198.06 230.01L1192.37 227.16C1195.22 213.56 1200.2 201.94 1207.32 192.28C1214.44 182.63 1223.14 175.2 1233.42 169.98C1243.7 164.76 1255.01 162.15 1267.35 162.15C1288.86 162.15 1306.26 168.24 1319.55 180.42C1332.84 192.6 1341.22 209.29 1344.7 230.48H1336.63C1339.48 215.61 1344.38 203.19 1351.34 193.23C1358.29 183.26 1367.07 175.6 1377.68 170.22C1388.27 164.84 1400.22 162.15 1413.51 162.15C1430.9 162.15 1445.93 165.87 1458.59 173.3C1471.24 180.74 1480.97 191.57 1487.77 205.81C1494.57 220.05 1497.97 237.6 1497.97 258.48V421.24H1437.23V274.14C1437.23 253.26 1433.67 237.6 1426.55 227.16C1419.43 216.72 1408.59 211.5 1394.04 211.5C1384.23 211.5 1375.84 214.04 1368.89 219.09C1361.93 224.15 1356.63 231.51 1352.99 241.16C1349.35 250.81 1347.53 262.44 1347.53 276.04V421.25H1291.06V276.04C1291.06 255.16 1287.89 239.19 1281.57 228.11C1275.24 217.04 1264.32 211.5 1248.83 211.5C1239.02 211.5 1230.72 214.04 1223.92 219.09C1217.11 224.15 1211.74 231.51 1207.79 241.16C1203.83 250.81 1201.86 262.44 1201.86 276.04V421.25H1141.12H1141.11Z" fill="white"/>
<path d="M1667.84 426.94C1650.12 426.94 1634.7 423.14 1621.57 415.55C1608.44 407.96 1598.24 397.36 1590.96 383.76L1589.54 421.25H1531.65V84.3301H1592.39V203.91C1599.34 192.21 1609.31 182.32 1622.29 174.25C1635.26 166.18 1650.44 162.15 1667.84 162.15C1689.67 162.15 1708.57 167.61 1724.55 178.52C1740.52 189.43 1752.86 204.78 1761.56 224.55C1770.26 244.32 1774.61 267.66 1774.61 294.54C1774.61 321.42 1770.26 344.77 1761.56 364.53C1752.86 384.3 1740.52 399.65 1724.55 410.56C1708.57 421.47 1689.67 426.93 1667.84 426.93V426.94ZM1654.08 377.59C1671.47 377.59 1685.4 370.23 1695.84 355.52C1706.28 340.81 1711.5 320.49 1711.5 294.54C1711.5 268.59 1706.35 247.88 1696.08 233.33C1685.8 218.78 1671.95 211.5 1654.56 211.5C1641.58 211.5 1630.43 214.75 1621.11 221.23C1611.77 227.72 1604.66 237.13 1599.76 249.46C1594.85 261.8 1592.4 276.83 1592.4 294.54C1592.4 312.25 1594.85 326.42 1599.76 338.91C1604.66 351.41 1611.7 360.98 1620.88 367.62C1630.05 374.26 1641.12 377.59 1654.1 377.59H1654.08Z" fill="white"/>
<path d="M1876.63 426.94C1851.01 426.94 1830.67 418.48 1815.65 401.55C1800.62 384.63 1793.11 361.14 1793.11 331.08V167.85H1853.85V315.9C1853.85 337.1 1857.41 352.68 1864.53 362.64C1871.65 372.61 1882.48 377.59 1897.04 377.59C1913.49 377.59 1926.22 372.13 1935.24 361.22C1944.26 350.31 1948.76 334.41 1948.76 313.53V167.85H2009.5V421.25H1953.98L1952.56 351.49L1960.15 353.86C1956.35 377.91 1947.34 396.09 1933.1 408.43C1918.86 420.77 1900.04 426.94 1876.63 426.94Z" fill="white"/>
<path d="M2146.16 426.941C2121.17 426.941 2100.2 423.301 2083.28 416.031C2066.35 408.761 2053.3 398.641 2044.13 385.661C2034.95 372.691 2029.73 357.981 2028.47 341.531L2090.63 338.681C2092.84 351.971 2098.38 362.251 2107.24 369.521C2116.09 376.801 2129.22 380.431 2146.63 380.431C2160.87 380.431 2172.02 378.141 2180.08 373.551C2188.15 368.971 2192.18 361.771 2192.18 351.961C2192.18 346.271 2190.76 341.521 2187.91 337.721C2185.06 333.921 2179.68 330.601 2171.78 327.751C2163.87 324.901 2152.16 322.061 2136.66 319.211C2110.72 314.781 2090.31 309.331 2075.45 302.841C2060.58 296.361 2050.06 288.211 2043.89 278.401C2037.72 268.601 2034.64 256.421 2034.64 241.861C2034.64 218.131 2043.73 198.921 2061.93 184.201C2080.12 169.491 2106.77 162.131 2141.89 162.131C2164.67 162.131 2183.8 165.851 2199.31 173.281C2214.81 180.721 2226.91 190.841 2235.61 203.651C2244.31 216.461 2249.76 231.101 2251.98 247.541L2190.77 250.391C2189.18 241.851 2186.34 234.421 2182.23 228.091C2178.11 221.771 2172.58 216.941 2165.62 213.621C2158.66 210.301 2150.44 208.641 2140.94 208.641C2126.7 208.641 2115.95 211.491 2108.67 217.181C2101.39 222.871 2097.76 230.471 2097.76 239.961C2097.76 246.601 2099.42 252.141 2102.74 256.571C2106.06 261.001 2111.52 264.561 2119.11 267.251C2126.7 269.941 2136.82 272.401 2149.48 274.611C2176.05 278.721 2197.01 284.031 2212.36 290.511C2227.7 297.001 2238.62 305.221 2245.1 315.191C2251.58 325.161 2254.83 337.101 2254.83 351.021C2254.83 367.151 2250.32 380.921 2241.31 392.301C2232.29 403.691 2219.64 412.311 2203.35 418.161C2187.05 424.011 2168 426.941 2146.17 426.941H2146.16Z" fill="white"/>
<path d="M629.887 102.683L589.863 236.058C587.627 243.512 580.761 248.617 572.991 248.617H440.541C428.751 248.617 420.281 237.233 423.669 225.939L463.693 92.564C465.929 85.1103 472.795 80.0057 480.565 80.0057H613.015C624.805 80.0057 633.275 91.3895 629.887 102.683ZM403.093 243.919C333.706 207.96 392.793 79.0119 277.261 80.0057C269.559 80.0735 262.806 85.1781 260.592 92.564L217.542 236.058C215.305 243.512 208.439 248.617 200.669 248.617H57.6493C49.8794 248.617 43.013 253.721 40.7769 261.175L0.753042 394.55C-2.63498 405.844 5.83508 417.227 17.6254 417.227H150.075C157.845 417.227 164.711 412.123 166.947 404.669L207.784 268.561C211.262 256.974 225.153 252.23 234.956 259.323C292.078 300.679 242.116 419.418 353.017 418.447C360.72 418.379 367.473 413.275 369.687 405.889L412.037 264.676C414.499 256.499 410.682 247.826 403.093 243.896V243.919Z" fill="url(#paint0_radial_271_238)"/>
<path d="M2360 427.283V89H2464.77C2516.83 89 2556.83 103.77 2584.77 133.31C2613.03 162.533 2627.15 204.302 2627.15 258.618C2627.15 312.616 2613.34 354.226 2585.72 383.449C2558.1 412.671 2518.74 427.283 2467.62 427.283H2360ZM2400.95 387.26H2464.77C2504.45 387.26 2534.29 376.62 2554.29 355.338C2574.29 333.739 2584.29 301.499 2584.29 258.618C2584.29 215.102 2574.29 182.703 2554.29 161.421C2534.29 139.822 2504.45 129.022 2464.77 129.022H2400.95V387.26Z" fill="#707070"/>
<path d="M2768.07 433C2744.89 433 2724.58 427.6 2707.11 416.801C2689.65 406.001 2676.16 390.754 2666.64 371.061C2657.11 351.05 2652.35 327.704 2652.35 301.022C2652.35 274.023 2657.11 250.677 2666.64 230.983C2676.16 211.29 2689.65 196.043 2707.11 185.244C2724.58 174.444 2744.89 169.044 2768.07 169.044C2791.25 169.044 2811.4 174.444 2828.55 185.244C2846.01 196.043 2859.5 211.29 2869.03 230.983C2878.55 250.677 2883.31 274.023 2883.31 301.022C2883.31 327.704 2878.55 351.05 2869.03 371.061C2859.5 390.754 2846.01 406.001 2828.55 416.801C2811.4 427.6 2791.25 433 2768.07 433ZM2768.07 394.884C2791.25 394.884 2809.18 386.625 2821.88 370.108C2834.9 353.273 2841.41 330.245 2841.41 301.022C2841.41 271.8 2834.9 248.93 2821.88 232.413C2809.18 215.578 2791.25 207.161 2768.07 207.161C2744.89 207.161 2726.8 215.578 2713.78 232.413C2700.77 248.93 2694.26 271.8 2694.26 301.022C2694.26 330.245 2700.77 353.273 2713.78 370.108C2726.8 386.625 2744.89 394.884 2768.07 394.884Z" fill="#707070"/>
<path d="M3012.59 433C2989.1 433 2968.62 427.6 2951.16 416.801C2934.02 406.001 2920.68 390.754 2911.16 371.061C2901.63 351.05 2896.87 327.704 2896.87 301.022C2896.87 274.341 2901.63 251.153 2911.16 231.46C2920.68 211.766 2934.02 196.52 2951.16 185.72C2968.62 174.603 2989.1 169.044 3012.59 169.044C3031.96 169.044 3049.1 172.538 3064.02 179.526C3079.26 186.197 3091.64 196.043 3101.17 209.066C3110.69 222.09 3116.88 237.971 3119.74 256.712L3077.83 259.571C3074.97 242.736 3067.67 229.872 3055.93 220.978C3044.18 211.766 3029.73 207.161 3012.59 207.161C2989.42 207.161 2971.32 215.578 2958.3 232.413C2945.29 248.93 2938.78 271.8 2938.78 301.022C2938.78 330.245 2945.29 353.273 2958.3 370.108C2971.32 386.625 2989.42 394.884 3012.59 394.884C3029.73 394.884 3044.18 390.119 3055.93 380.59C3067.67 371.061 3074.97 356.767 3077.83 337.709L3119.74 340.568C3116.88 359.308 3110.69 375.667 3101.17 389.643C3091.64 403.301 3079.26 413.942 3064.02 421.565C3049.1 429.188 3031.96 433 3012.59 433Z" fill="#707070"/>
<path d="M3237.42 433C3214.88 433 3195.68 429.347 3179.8 422.042C3164.25 414.736 3152.02 404.73 3143.14 392.025C3134.56 379.002 3129.64 364.232 3128.37 347.715L3170.28 344.856C3172.82 360.102 3179.33 372.331 3189.8 381.543C3200.28 390.437 3216.15 394.884 3237.42 394.884C3254.57 394.884 3268.22 392.184 3278.38 386.784C3288.86 381.066 3294.09 372.014 3294.09 359.626C3294.09 352.956 3292.51 347.397 3289.33 342.95C3286.16 338.503 3279.97 334.692 3270.76 331.515C3261.55 328.021 3247.9 324.686 3229.81 321.51C3205.68 317.063 3186.63 311.663 3172.66 305.31C3159.01 298.64 3149.17 290.54 3143.14 281.011C3137.42 271.164 3134.56 259.571 3134.56 246.23C3134.56 223.678 3142.82 205.255 3159.33 190.961C3175.84 176.35 3199.33 169.044 3229.81 169.044C3250.44 169.044 3267.74 172.856 3281.71 180.479C3296 187.785 3307.11 197.632 3315.05 210.019C3323.3 222.09 3328.7 235.43 3331.24 250.042L3289.33 252.9C3287.43 244.006 3283.93 236.224 3278.86 229.554C3273.78 222.566 3267.11 217.166 3258.85 213.355C3250.6 209.225 3240.76 207.161 3229.33 207.161C3211.23 207.161 3197.9 210.655 3189.33 217.643C3180.76 224.631 3176.47 233.524 3176.47 244.324C3176.47 252.583 3178.38 259.412 3182.18 264.812C3186.31 269.894 3192.82 274.182 3201.71 277.676C3210.6 280.852 3222.5 283.711 3237.42 286.252C3263.14 290.699 3283.14 296.099 3297.43 302.452C3311.71 308.804 3321.71 316.586 3327.43 325.798C3333.14 335.009 3336 346.285 3336 359.626C3336 375.19 3331.56 388.531 3322.67 399.648C3314.09 410.448 3302.35 418.706 3287.43 424.424C3272.82 430.141 3256.16 433 3237.42 433Z" fill="#707070"/>
<defs>
<radialGradient id="paint0_radial_271_238" cx="0" cy="0" r="1" gradientUnits="userSpaceOnUse" gradientTransform="translate(88.5481 -87.7921) scale(759.37 759.37)">
<stop offset="0.35" stop-color="#A9DCD6"/>
<stop offset="0.73" stop-color="#4EBEC7"/>
</radialGradient>
</defs>
</svg>
