<svg width="3456" height="522" viewBox="0 0 3456 522" fill="none" xmlns="http://www.w3.org/2000/svg">
<path d="M711.561 417.25V80.3301H783.691L928.901 333.73V80.3301H990.591V417.25H916.561L773.251 170.97V417.25H711.561Z" fill="white"/>
<path d="M1024.75 130.161V76.0605H1087.86V130.161H1024.75ZM1025.7 417.251V163.851H1086.44V417.251H1025.7Z" fill="white"/>
<path d="M1128.67 417.25V163.85H1183.72L1185.62 226.01L1179.93 223.16C1182.78 209.56 1187.76 197.94 1194.88 188.28C1202 178.63 1210.7 171.2 1220.98 165.98C1231.26 160.76 1242.57 158.15 1254.91 158.15C1276.42 158.15 1293.82 164.24 1307.11 176.42C1320.4 188.6 1328.78 205.29 1332.26 226.48H1324.19C1327.04 211.61 1331.94 199.19 1338.9 189.23C1345.85 179.26 1354.63 171.6 1365.24 166.22C1375.83 160.84 1387.78 158.15 1401.07 158.15C1418.46 158.15 1433.49 161.87 1446.15 169.3C1458.8 176.74 1468.53 187.57 1475.33 201.81C1482.13 216.05 1485.53 233.6 1485.53 254.48V417.24H1424.79V270.14C1424.79 249.26 1421.23 233.6 1414.11 223.16C1406.99 212.72 1396.15 207.5 1381.6 207.5C1371.79 207.5 1363.4 210.04 1356.45 215.09C1349.49 220.15 1344.19 227.51 1340.55 237.16C1336.91 246.81 1335.09 258.44 1335.09 272.04V417.25H1278.62V272.04C1278.62 251.16 1275.45 235.19 1269.13 224.11C1262.8 213.04 1251.88 207.5 1236.39 207.5C1226.58 207.5 1218.28 210.04 1211.48 215.09C1204.67 220.15 1199.3 227.51 1195.35 237.16C1191.39 246.81 1189.42 258.44 1189.42 272.04V417.25H1128.68H1128.67Z" fill="white"/>
<path d="M1655.4 422.94C1637.68 422.94 1622.26 419.14 1609.13 411.55C1596 403.96 1585.8 393.36 1578.52 379.76L1577.1 417.25H1519.21V80.3301H1579.95V199.91C1586.9 188.21 1596.87 178.32 1609.85 170.25C1622.82 162.18 1638 158.15 1655.4 158.15C1677.23 158.15 1696.13 163.61 1712.11 174.52C1728.08 185.43 1740.42 200.78 1749.12 220.55C1757.82 240.32 1762.17 263.66 1762.17 290.54C1762.17 317.42 1757.82 340.77 1749.12 360.53C1740.42 380.3 1728.08 395.65 1712.11 406.56C1696.13 417.47 1677.23 422.93 1655.4 422.93V422.94ZM1641.64 373.59C1659.03 373.59 1672.96 366.23 1683.4 351.52C1693.84 336.81 1699.06 316.49 1699.06 290.54C1699.06 264.59 1693.91 243.88 1683.64 229.33C1673.36 214.78 1659.51 207.5 1642.12 207.5C1629.14 207.5 1617.99 210.75 1608.67 217.23C1599.33 223.72 1592.22 233.13 1587.32 245.46C1582.41 257.8 1579.96 272.83 1579.96 290.54C1579.96 308.25 1582.41 322.42 1587.32 334.91C1592.22 347.41 1599.26 356.98 1608.44 363.62C1617.61 370.26 1628.68 373.59 1641.66 373.59H1641.64Z" fill="white"/>
<path d="M1864.19 422.94C1838.57 422.94 1818.23 414.48 1803.21 397.55C1788.18 380.63 1780.67 357.14 1780.67 327.08V163.85H1841.41V311.9C1841.41 333.1 1844.97 348.68 1852.09 358.64C1859.21 368.61 1870.04 373.59 1884.6 373.59C1901.05 373.59 1913.78 368.13 1922.8 357.22C1931.82 346.31 1936.32 330.41 1936.32 309.53V163.85H1997.06V417.25H1941.54L1940.12 347.49L1947.71 349.86C1943.91 373.91 1934.9 392.09 1920.66 404.43C1906.42 416.77 1887.6 422.94 1864.19 422.94Z" fill="white"/>
<path d="M2133.72 422.941C2108.73 422.941 2087.76 419.301 2070.84 412.031C2053.91 404.761 2040.86 394.641 2031.69 381.661C2022.51 368.691 2017.29 353.981 2016.03 337.531L2078.19 334.681C2080.4 347.971 2085.94 358.251 2094.8 365.521C2103.65 372.801 2116.78 376.431 2134.19 376.431C2148.43 376.431 2159.58 374.141 2167.64 369.551C2175.71 364.971 2179.74 357.771 2179.74 347.961C2179.74 342.271 2178.32 337.521 2175.47 333.721C2172.62 329.921 2167.24 326.601 2159.34 323.751C2151.43 320.901 2139.72 318.061 2124.22 315.211C2098.28 310.781 2077.87 305.331 2063.01 298.841C2048.14 292.361 2037.62 284.211 2031.45 274.401C2025.28 264.601 2022.2 252.421 2022.2 237.861C2022.2 214.131 2031.29 194.921 2049.49 180.201C2067.68 165.491 2094.33 158.131 2129.45 158.131C2152.23 158.131 2171.36 161.851 2186.87 169.281C2202.37 176.721 2214.47 186.841 2223.17 199.651C2231.87 212.461 2237.32 227.101 2239.54 243.541L2178.33 246.391C2176.74 237.851 2173.9 230.421 2169.79 224.091C2165.67 217.771 2160.14 212.941 2153.18 209.621C2146.22 206.301 2138 204.641 2128.5 204.641C2114.26 204.641 2103.51 207.491 2096.23 213.181C2088.95 218.871 2085.32 226.471 2085.32 235.961C2085.32 242.601 2086.98 248.141 2090.3 252.571C2093.62 257.001 2099.08 260.561 2106.67 263.251C2114.26 265.941 2124.38 268.401 2137.04 270.611C2163.61 274.721 2184.57 280.031 2199.92 286.511C2215.26 293.001 2226.18 301.221 2232.66 311.191C2239.14 321.161 2242.39 333.101 2242.39 347.021C2242.39 363.151 2237.88 376.921 2228.87 388.301C2219.85 399.691 2207.2 408.311 2190.91 414.161C2174.61 420.011 2155.56 422.941 2133.73 422.941H2133.72Z" fill="white"/>
<path d="M711.561 417.25V80.3301H783.691L928.901 333.73V80.3301H990.591V417.25H916.561L773.251 170.97V417.25H711.561Z" fill="black"/>
<path d="M1024.75 130.161V76.0605H1087.86V130.161H1024.75ZM1025.7 417.251V163.851H1086.44V417.251H1025.7Z" fill="black"/>
<path d="M1128.67 417.25V163.85H1183.72L1185.62 226.01L1179.93 223.16C1182.78 209.56 1187.76 197.94 1194.88 188.28C1202 178.63 1210.7 171.2 1220.98 165.98C1231.26 160.76 1242.57 158.15 1254.91 158.15C1276.42 158.15 1293.82 164.24 1307.11 176.42C1320.4 188.6 1328.78 205.29 1332.26 226.48H1324.19C1327.04 211.61 1331.94 199.19 1338.9 189.23C1345.85 179.26 1354.63 171.6 1365.24 166.22C1375.83 160.84 1387.78 158.15 1401.07 158.15C1418.46 158.15 1433.49 161.87 1446.15 169.3C1458.8 176.74 1468.53 187.57 1475.33 201.81C1482.13 216.05 1485.53 233.6 1485.53 254.48V417.24H1424.79V270.14C1424.79 249.26 1421.23 233.6 1414.11 223.16C1406.99 212.72 1396.15 207.5 1381.6 207.5C1371.79 207.5 1363.4 210.04 1356.45 215.09C1349.49 220.15 1344.19 227.51 1340.55 237.16C1336.91 246.81 1335.09 258.44 1335.09 272.04V417.25H1278.62V272.04C1278.62 251.16 1275.45 235.19 1269.13 224.11C1262.8 213.04 1251.88 207.5 1236.39 207.5C1226.58 207.5 1218.28 210.04 1211.48 215.09C1204.67 220.15 1199.3 227.51 1195.35 237.16C1191.39 246.81 1189.42 258.44 1189.42 272.04V417.25H1128.68H1128.67Z" fill="black"/>
<path d="M1655.4 422.94C1637.68 422.94 1622.26 419.14 1609.13 411.55C1596 403.96 1585.8 393.36 1578.52 379.76L1577.1 417.25H1519.21V80.3301H1579.95V199.91C1586.9 188.21 1596.87 178.32 1609.85 170.25C1622.82 162.18 1638 158.15 1655.4 158.15C1677.23 158.15 1696.13 163.61 1712.11 174.52C1728.08 185.43 1740.42 200.78 1749.12 220.55C1757.82 240.32 1762.17 263.66 1762.17 290.54C1762.17 317.42 1757.82 340.77 1749.12 360.53C1740.42 380.3 1728.08 395.65 1712.11 406.56C1696.13 417.47 1677.23 422.93 1655.4 422.93V422.94ZM1641.64 373.59C1659.03 373.59 1672.96 366.23 1683.4 351.52C1693.84 336.81 1699.06 316.49 1699.06 290.54C1699.06 264.59 1693.91 243.88 1683.64 229.33C1673.36 214.78 1659.51 207.5 1642.12 207.5C1629.14 207.5 1617.99 210.75 1608.67 217.23C1599.33 223.72 1592.22 233.13 1587.32 245.46C1582.41 257.8 1579.96 272.83 1579.96 290.54C1579.96 308.25 1582.41 322.42 1587.32 334.91C1592.22 347.41 1599.26 356.98 1608.44 363.62C1617.61 370.26 1628.68 373.59 1641.66 373.59H1641.64Z" fill="black"/>
<path d="M1864.19 422.94C1838.57 422.94 1818.23 414.48 1803.21 397.55C1788.18 380.63 1780.67 357.14 1780.67 327.08V163.85H1841.41V311.9C1841.41 333.1 1844.97 348.68 1852.09 358.64C1859.21 368.61 1870.04 373.59 1884.6 373.59C1901.05 373.59 1913.78 368.13 1922.8 357.22C1931.82 346.31 1936.32 330.41 1936.32 309.53V163.85H1997.06V417.25H1941.54L1940.12 347.49L1947.71 349.86C1943.91 373.91 1934.9 392.09 1920.66 404.43C1906.42 416.77 1887.6 422.94 1864.19 422.94Z" fill="black"/>
<path d="M2133.72 422.941C2108.73 422.941 2087.76 419.301 2070.84 412.031C2053.91 404.761 2040.86 394.641 2031.69 381.661C2022.51 368.691 2017.29 353.981 2016.03 337.531L2078.19 334.681C2080.4 347.971 2085.94 358.251 2094.8 365.521C2103.65 372.801 2116.78 376.431 2134.19 376.431C2148.43 376.431 2159.58 374.141 2167.64 369.551C2175.71 364.971 2179.74 357.771 2179.74 347.961C2179.74 342.271 2178.32 337.521 2175.47 333.721C2172.62 329.921 2167.24 326.601 2159.34 323.751C2151.43 320.901 2139.72 318.061 2124.22 315.211C2098.28 310.781 2077.87 305.331 2063.01 298.841C2048.14 292.361 2037.62 284.211 2031.45 274.401C2025.28 264.601 2022.2 252.421 2022.2 237.861C2022.2 214.131 2031.29 194.921 2049.49 180.201C2067.68 165.491 2094.33 158.131 2129.45 158.131C2152.23 158.131 2171.36 161.851 2186.87 169.281C2202.37 176.721 2214.47 186.841 2223.17 199.651C2231.87 212.461 2237.32 227.101 2239.54 243.541L2178.33 246.391C2176.74 237.851 2173.9 230.421 2169.79 224.091C2165.67 217.771 2160.14 212.941 2153.18 209.621C2146.22 206.301 2138 204.641 2128.5 204.641C2114.26 204.641 2103.51 207.491 2096.23 213.181C2088.95 218.871 2085.32 226.471 2085.32 235.961C2085.32 242.601 2086.98 248.141 2090.3 252.571C2093.62 257.001 2099.08 260.561 2106.67 263.251C2114.26 265.941 2124.38 268.401 2137.04 270.611C2163.61 274.721 2184.57 280.031 2199.92 286.511C2215.26 293.001 2226.18 301.221 2232.66 311.191C2239.14 321.161 2242.39 333.101 2242.39 347.021C2242.39 363.151 2237.88 376.921 2228.87 388.301C2219.85 399.691 2207.2 408.311 2190.91 414.161C2174.61 420.011 2155.56 422.941 2133.73 422.941H2133.72Z" fill="black"/>
<path d="M596.926 123.557L558.997 249.953C556.878 257.016 550.371 261.854 543.007 261.854H417.489C406.316 261.854 398.289 251.066 401.499 240.363L439.429 113.967C441.548 106.903 448.055 102.066 455.418 102.066H580.937C592.11 102.066 600.137 112.854 596.926 123.557ZM382 257.402C316.244 223.325 372.239 101.124 262.753 102.066C255.454 102.13 249.054 106.968 246.956 113.967L206.158 249.953C204.039 257.016 197.532 261.854 190.169 261.854H54.6326C47.2693 261.854 40.7622 266.691 38.6432 273.755L0.713637 400.151C-2.4971 410.853 5.52975 421.641 16.7031 421.641H142.222C149.585 421.641 156.092 416.804 158.211 409.74L196.911 280.754C200.208 269.774 213.372 265.279 222.661 272C276.794 311.192 229.447 423.718 334.545 422.797C341.844 422.733 348.244 417.896 350.342 410.896L390.476 277.073C392.809 269.324 389.192 261.105 382 257.38V257.402Z" fill="url(#paint0_radial_271_238)"/>
<path d="M2368 411.06V66H2474.92C2528.06 66 2568.88 81.066 2597.39 111.198C2626.23 141.006 2640.65 183.612 2640.65 239.016C2640.65 294.096 2626.55 336.54 2598.36 366.348C2570.18 396.156 2530 411.06 2477.84 411.06H2368ZM2409.8 370.236H2474.92C2515.42 370.236 2545.88 359.382 2566.29 337.674C2586.7 315.642 2596.91 282.756 2596.91 239.016C2596.91 194.628 2586.7 161.58 2566.29 139.872C2545.88 117.84 2515.42 106.824 2474.92 106.824H2409.8V370.236Z" fill="#707070"/>
<path d="M2784.46 416.892C2760.81 416.892 2740.07 411.384 2722.25 400.368C2704.43 389.352 2690.66 373.8 2680.94 353.712C2671.22 333.3 2666.36 309.486 2666.36 282.27C2666.36 254.73 2671.22 230.916 2680.94 210.828C2690.66 190.74 2704.43 175.188 2722.25 164.172C2740.07 153.156 2760.81 147.648 2784.46 147.648C2808.11 147.648 2828.69 153.156 2846.18 164.172C2864 175.188 2877.77 190.74 2887.49 210.828C2897.21 230.916 2902.07 254.73 2902.07 282.27C2902.07 309.486 2897.21 333.3 2887.49 353.712C2877.77 373.8 2864 389.352 2846.18 400.368C2828.69 411.384 2808.11 416.892 2784.46 416.892ZM2784.46 378.012C2808.11 378.012 2826.42 369.588 2839.38 352.74C2852.66 335.568 2859.3 312.078 2859.3 282.27C2859.3 252.462 2852.66 229.134 2839.38 212.286C2826.42 195.114 2808.11 186.528 2784.46 186.528C2760.81 186.528 2742.34 195.114 2729.06 212.286C2715.77 229.134 2709.13 252.462 2709.13 282.27C2709.13 312.078 2715.77 335.568 2729.06 352.74C2742.34 369.588 2760.81 378.012 2784.46 378.012Z" fill="#707070"/>
<path d="M3034.01 416.892C3010.03 416.892 2989.14 411.384 2971.32 400.368C2953.82 389.352 2940.21 373.8 2930.49 353.712C2920.77 333.3 2915.91 309.486 2915.91 282.27C2915.91 255.054 2920.77 231.402 2930.49 211.314C2940.21 191.226 2953.82 175.674 2971.32 164.658C2989.14 153.318 3010.03 147.648 3034.01 147.648C3053.77 147.648 3071.27 151.212 3086.5 158.34C3102.05 165.144 3114.69 175.188 3124.41 188.472C3134.13 201.756 3140.44 217.956 3143.36 237.072L3100.59 239.988C3097.68 222.816 3090.22 209.694 3078.24 200.622C3066.25 191.226 3051.51 186.528 3034.01 186.528C3010.36 186.528 2991.89 195.114 2978.61 212.286C2965.32 229.134 2958.68 252.462 2958.68 282.27C2958.68 312.078 2965.32 335.568 2978.61 352.74C2991.89 369.588 3010.36 378.012 3034.01 378.012C3051.51 378.012 3066.25 373.152 3078.24 363.432C3090.22 353.712 3097.68 339.132 3100.59 319.692L3143.36 322.608C3140.44 341.724 3134.13 358.41 3124.41 372.666C3114.69 386.598 3102.05 397.452 3086.5 405.228C3071.27 413.004 3053.77 416.892 3034.01 416.892Z" fill="#707070"/>
<path d="M3263.47 416.892C3240.46 416.892 3220.86 413.166 3204.66 405.714C3188.78 398.262 3176.31 388.056 3167.24 375.096C3158.49 361.812 3153.47 346.746 3152.17 329.898L3194.94 326.982C3197.53 342.534 3204.17 355.008 3214.87 364.404C3225.56 373.476 3241.76 378.012 3263.47 378.012C3280.96 378.012 3294.89 375.258 3305.26 369.75C3315.95 363.918 3321.3 354.684 3321.3 342.048C3321.3 335.244 3319.68 329.574 3316.44 325.038C3313.2 320.502 3306.88 316.614 3297.49 313.374C3288.09 309.81 3274.16 306.408 3255.69 303.168C3231.07 298.632 3211.63 293.124 3197.37 286.644C3183.44 279.84 3173.39 271.578 3167.24 261.858C3161.41 251.814 3158.49 239.988 3158.49 226.38C3158.49 203.376 3166.91 184.584 3183.76 170.004C3200.61 155.1 3224.59 147.648 3255.69 147.648C3276.75 147.648 3294.41 151.536 3308.66 159.312C3323.24 166.764 3334.58 176.808 3342.68 189.444C3351.11 201.756 3356.62 215.364 3359.21 230.268L3316.44 233.184C3314.5 224.112 3310.93 216.174 3305.75 209.37C3300.56 202.242 3293.76 196.734 3285.34 192.846C3276.91 188.634 3266.87 186.528 3255.2 186.528C3236.74 186.528 3223.13 190.092 3214.38 197.22C3205.63 204.348 3201.26 213.42 3201.26 224.436C3201.26 232.86 3203.2 239.826 3207.09 245.334C3211.3 250.518 3217.94 254.892 3227.02 258.456C3236.09 261.696 3248.24 264.612 3263.47 267.204C3289.71 271.74 3310.12 277.248 3324.7 283.728C3339.28 290.208 3349.49 298.146 3355.32 307.542C3361.15 316.938 3364.07 328.44 3364.07 342.048C3364.07 357.924 3359.53 371.532 3350.46 382.872C3341.71 393.888 3329.72 402.312 3314.5 408.144C3299.59 413.976 3282.58 416.892 3263.47 416.892Z" fill="#707070"/>
<defs>
<radialGradient id="paint0_radial_271_238" cx="0" cy="0" r="1" gradientUnits="userSpaceOnUse" gradientTransform="translate(83.9146 -56.9512) scale(719.634 719.634)">
<stop offset="0.35" stop-color="#A9DCD6"/>
<stop offset="0.73" stop-color="#4EBEC7"/>
</radialGradient>
</defs>
</svg>
