<svg width="179" height="22" viewBox="0 0 179 22" fill="none" xmlns="http://www.w3.org/2000/svg">
<path d="M14.9302 5.74167H7.87695L4.53053 15.5169H0L10.1422 22L14.9302 5.74167Z" fill="#578D85"/>
<path d="M13.6946 16.6312H20.7478L24.0942 6.85595H28.6247L18.4825 0.372881L13.6946 16.6312Z" fill="#578D85"/>
<path d="M34.5192 17.5254V4.28813H35.7997V10.6831L35.1971 10.2169H43.5209L42.9183 10.6831V4.28813H44.1988V17.5254H42.9183V10.9627L43.5209 11.4475H35.1971L35.7997 10.9627V17.5254H34.5192Z" fill="black"/>
<path d="M47.6339 20.322V19.222H48.6509C49.0652 19.222 49.3665 19.1537 49.5548 19.0169C49.7557 18.8927 49.9189 18.6689 50.0444 18.3458L50.4211 17.339H49.9691L46.2215 7.64407H47.5774L50.7977 16.239L53.8673 7.64407H55.2232L51.1178 18.7559C50.917 19.3028 50.6345 19.7006 50.2704 19.9492C49.9189 20.1977 49.4104 20.322 48.745 20.322H47.6339Z" fill="black"/>
<path d="M56.7302 20.322V7.64407H57.8602L57.8978 10.1424L57.6907 10.0492C57.9418 9.19152 58.3749 8.53898 58.9901 8.09152C59.6053 7.64407 60.3209 7.42034 61.1369 7.42034C62.0785 7.42034 62.8569 7.6565 63.4721 8.12881C64.0999 8.5887 64.5707 9.21017 64.8845 9.99322C65.2109 10.7638 65.3742 11.6277 65.3742 12.5847C65.3742 13.5418 65.2172 14.4119 64.9034 15.1949C64.5895 15.9655 64.1187 16.587 63.4909 17.0593C62.8632 17.5192 62.0785 17.7492 61.1369 17.7492C60.5845 17.7492 60.0698 17.6435 59.5927 17.4322C59.1282 17.2085 58.7327 16.9102 58.4063 16.5373C58.0924 16.1644 57.879 15.7418 57.766 15.2695L57.9732 15.0271V20.322H56.7302ZM61.0428 16.5746C61.9718 16.5746 62.7063 16.2203 63.2461 15.5119C63.786 14.8034 64.0559 13.8277 64.0559 12.5847C64.0559 11.3418 63.786 10.3661 63.2461 9.65763C62.7063 8.94915 61.9656 8.59491 61.0239 8.59491C60.4088 8.59491 59.8689 8.7565 59.4044 9.07966C58.9524 9.3904 58.6009 9.84407 58.3498 10.4407C58.0987 11.0373 57.9732 11.752 57.9732 12.5847C57.9732 13.4175 58.0987 14.1322 58.3498 14.7288C58.6009 15.3254 58.9587 15.7853 59.4232 16.1085C59.8877 16.4192 60.4276 16.5746 61.0428 16.5746Z" fill="black"/>
<path d="M71.422 17.7492C70.4679 17.7492 69.6581 17.5316 68.9927 17.0966C68.3273 16.6492 67.8126 16.0401 67.4485 15.2695C67.0969 14.4864 66.9212 13.5915 66.9212 12.5847C66.9212 11.578 67.0969 10.6893 67.4485 9.91864C67.8 9.13559 68.3022 8.52655 68.955 8.09152C69.6204 7.64407 70.4177 7.42034 71.3467 7.42034C72.2381 7.42034 73.0102 7.63164 73.6631 8.05424C74.3159 8.47684 74.8118 9.07345 75.1508 9.84407C75.5023 10.6147 75.6781 11.5158 75.6781 12.5475V12.939H68.2206C68.2708 14.1073 68.5784 15.0085 69.1434 15.6424C69.7083 16.2638 70.4679 16.5746 71.422 16.5746C72.1502 16.5746 72.7466 16.4006 73.2111 16.0525C73.6756 15.7045 73.9958 15.2446 74.1715 14.6729L75.5086 14.7661C75.2575 15.6362 74.7741 16.3508 74.0585 16.9102C73.3429 17.4695 72.4641 17.7492 71.422 17.7492ZM68.2206 11.839H74.3222C74.2594 10.7825 73.9644 9.98079 73.4371 9.4339C72.9098 8.87458 72.213 8.59491 71.3467 8.59491C70.4804 8.59491 69.7711 8.87458 69.2187 9.4339C68.6663 9.99322 68.3336 10.7949 68.2206 11.839Z" fill="black"/>
<path d="M77.8979 17.5254V7.64407H78.9713L79.0467 10.3475L78.8772 10.2542C79.0404 9.37175 79.3354 8.71921 79.7623 8.29661C80.1891 7.86158 80.7792 7.64407 81.5325 7.64407H82.3988V8.83729H81.4948C80.9926 8.83729 80.5658 8.94915 80.2143 9.17288C79.8627 9.38418 79.5928 9.6887 79.4045 10.0864C79.2287 10.4842 79.1408 10.9565 79.1408 11.5034V17.5254H77.8979Z" fill="black"/>
<path d="M89.502 17.8237C88.5102 17.8237 87.6313 17.6311 86.8655 17.2458C86.1122 16.8605 85.5159 16.3322 85.0765 15.661C84.637 14.9774 84.3922 14.2068 84.342 13.3492L85.6791 13.2559C85.7293 13.9147 85.9176 14.4989 86.244 15.0085C86.5705 15.5056 87.0099 15.891 87.5623 16.1644C88.1147 16.4379 88.7738 16.5746 89.5397 16.5746C90.205 16.5746 90.7826 16.4814 91.2722 16.2949C91.7618 16.1085 92.1385 15.835 92.4021 15.4746C92.6658 15.1141 92.7976 14.6791 92.7976 14.1695C92.7976 13.7345 92.6972 13.3492 92.4963 13.0136C92.2954 12.678 91.9062 12.3672 91.3287 12.0814C90.7512 11.7955 89.91 11.522 88.8052 11.261C87.7883 11.0124 86.9722 10.739 86.357 10.4407C85.7544 10.1424 85.315 9.77571 85.0388 9.34068C84.7626 8.89322 84.6245 8.3339 84.6245 7.66271C84.6245 6.95424 84.8003 6.32655 85.1518 5.77966C85.5033 5.22034 86.0055 4.78531 86.6583 4.47458C87.3237 4.15141 88.1147 3.98983 89.0312 3.98983C90.0105 3.98983 90.8453 4.18249 91.5358 4.5678C92.2264 4.94068 92.7662 5.44407 93.1554 6.07797C93.5446 6.69943 93.7706 7.38927 93.8334 8.14746L92.4963 8.24068C92.4461 7.68136 92.2829 7.17175 92.0067 6.71186C91.7304 6.25198 91.3413 5.89152 90.8391 5.63051C90.3369 5.36949 89.7217 5.23898 88.9935 5.23898C88.0519 5.23898 87.3112 5.46271 86.7713 5.91017C86.2315 6.3452 85.9616 6.91695 85.9616 7.62542C85.9616 8.07288 86.062 8.44576 86.2629 8.74407C86.4637 9.02994 86.8216 9.28475 87.3363 9.50847C87.851 9.71977 88.5855 9.9435 89.5397 10.1797C90.7198 10.4531 91.6426 10.7825 92.308 11.1678C92.9859 11.5407 93.463 11.9695 93.7392 12.4542C94.0154 12.939 94.1535 13.4921 94.1535 14.1136C94.1535 14.8718 93.9464 15.5305 93.532 16.0898C93.1303 16.6492 92.5779 17.078 91.8748 17.3763C91.1843 17.6746 90.3934 17.8237 89.502 17.8237Z" fill="black"/>
<path d="M100.773 17.7492C99.8436 17.7492 99.0464 17.5316 98.381 17.0966C97.7156 16.6492 97.2009 16.0401 96.8368 15.2695C96.4853 14.4864 96.3095 13.5915 96.3095 12.5847C96.3095 11.578 96.4853 10.6893 96.8368 9.91864C97.2009 9.13559 97.7156 8.52655 98.381 8.09152C99.0464 7.64407 99.8436 7.42034 100.773 7.42034C101.539 7.42034 102.21 7.55706 102.788 7.83051C103.365 8.10395 103.836 8.49548 104.2 9.00508C104.564 9.51469 104.809 10.1175 104.935 10.8136L103.635 10.8881C103.484 10.1548 103.158 9.58926 102.656 9.19152C102.166 8.79378 101.539 8.59491 100.773 8.59491C99.7934 8.59491 99.0213 8.95537 98.4563 9.67627C97.8914 10.3847 97.6089 11.3542 97.6089 12.5847C97.6089 13.8153 97.8914 14.791 98.4563 15.5119C99.0213 16.2203 99.7934 16.5746 100.773 16.5746C101.539 16.5746 102.173 16.3633 102.675 15.9407C103.189 15.5056 103.516 14.8842 103.654 14.0763L104.953 14.1695C104.828 14.8904 104.577 15.5181 104.2 16.0525C103.836 16.587 103.365 17.0034 102.788 17.3017C102.21 17.6 101.539 17.7492 100.773 17.7492Z" fill="black"/>
<path d="M106.992 17.5254V7.64407H108.065L108.141 10.3475L107.971 10.2542C108.134 9.37175 108.429 8.71921 108.856 8.29661C109.283 7.86158 109.873 7.64407 110.627 7.64407H111.493V8.83729H110.589C110.087 8.83729 109.66 8.94915 109.308 9.17288C108.957 9.38418 108.687 9.6887 108.499 10.0864C108.323 10.4842 108.235 10.9565 108.235 11.5034V17.5254H106.992Z" fill="black"/>
<path d="M113.337 17.5254V7.64407H114.58V17.5254H113.337ZM113.299 6.00339V4.34407H114.617V6.00339H113.299Z" fill="black"/>
<path d="M117.824 20.322V7.64407H118.954L118.992 10.1424L118.785 10.0492C119.036 9.19152 119.469 8.53898 120.084 8.09152C120.699 7.64407 121.415 7.42034 122.231 7.42034C123.172 7.42034 123.951 7.6565 124.566 8.12881C125.194 8.5887 125.664 9.21017 125.978 9.99322C126.305 10.7638 126.468 11.6277 126.468 12.5847C126.468 13.5418 126.311 14.4119 125.997 15.1949C125.683 15.9655 125.213 16.587 124.585 17.0593C123.957 17.5192 123.172 17.7492 122.231 17.7492C121.678 17.7492 121.164 17.6435 120.687 17.4322C120.222 17.2085 119.827 16.9102 119.5 16.5373C119.186 16.1644 118.973 15.7418 118.86 15.2695L119.067 15.0271V20.322H117.824ZM122.137 16.5746C123.066 16.5746 123.8 16.2203 124.34 15.5119C124.88 14.8034 125.15 13.8277 125.15 12.5847C125.15 11.3418 124.88 10.3661 124.34 9.65763C123.8 8.94915 123.059 8.59491 122.118 8.59491C121.503 8.59491 120.963 8.7565 120.498 9.07966C120.046 9.3904 119.695 9.84407 119.444 10.4407C119.193 11.0373 119.067 11.752 119.067 12.5847C119.067 13.4175 119.193 14.1322 119.444 14.7288C119.695 15.3254 120.053 15.7853 120.517 16.1085C120.982 16.4192 121.521 16.5746 122.137 16.5746Z" fill="black"/>
<path d="M131.736 17.5254C130.919 17.5254 130.317 17.339 129.928 16.9661C129.538 16.5808 129.344 15.9966 129.344 15.2136V5.3322H130.587V15.1763C130.587 15.6362 130.687 15.9593 130.888 16.1458C131.102 16.3322 131.422 16.4254 131.849 16.4254H133.167V17.5254H131.736ZM127.781 8.74407V7.64407H133.167V8.74407H127.781Z" fill="black"/>
<path d="M139.282 17.5254V4.28813H143.086C145.07 4.28813 146.595 4.8661 147.662 6.02203C148.729 7.16554 149.263 8.8 149.263 10.9254C149.263 13.0384 148.736 14.6667 147.681 15.8102C146.639 16.9537 145.145 17.5254 143.199 17.5254H139.282ZM139.885 16.9661H143.086C144.869 16.9661 146.237 16.4441 147.191 15.4C148.145 14.3559 148.623 12.8644 148.623 10.9254C148.623 8.97401 148.145 7.47627 147.191 6.4322C146.237 5.37571 144.869 4.84746 143.086 4.84746H139.885V16.9661Z" fill="#6E6E6E"/>
<path d="M155.563 17.7492C154.697 17.7492 153.944 17.5379 153.303 17.1153C152.675 16.6927 152.186 16.096 151.834 15.3254C151.495 14.5548 151.326 13.6412 151.326 12.5847C151.326 11.5282 151.495 10.6147 151.834 9.84407C152.186 9.07345 152.675 8.47684 153.303 8.05424C153.944 7.63164 154.697 7.42034 155.563 7.42034C156.429 7.42034 157.176 7.63164 157.804 8.05424C158.444 8.47684 158.934 9.07345 159.273 9.84407C159.625 10.6147 159.8 11.5282 159.8 12.5847C159.8 13.6412 159.625 14.5548 159.273 15.3254C158.934 16.096 158.444 16.6927 157.804 17.1153C157.176 17.5379 156.429 17.7492 155.563 17.7492ZM155.563 17.1898C156.68 17.1898 157.566 16.7797 158.218 15.9593C158.871 15.1266 159.198 14.0017 159.198 12.5847C159.198 11.1678 158.871 10.0492 158.218 9.22881C157.566 8.39604 156.68 7.97966 155.563 7.97966C154.446 7.97966 153.561 8.39604 152.908 9.22881C152.255 10.0492 151.928 11.1678 151.928 12.5847C151.928 14.0017 152.255 15.1266 152.908 15.9593C153.561 16.7797 154.446 17.1898 155.563 17.1898Z" fill="#6E6E6E"/>
<path d="M165.733 17.7492C164.792 17.7492 164.007 17.513 163.379 17.0407C162.751 16.5684 162.281 15.9407 161.967 15.1576C161.653 14.3746 161.496 13.5169 161.496 12.5847C161.496 11.6525 161.653 10.7949 161.967 10.0119C162.281 9.22881 162.751 8.60113 163.379 8.12881C164.007 7.6565 164.792 7.42034 165.733 7.42034C166.486 7.42034 167.133 7.56949 167.673 7.8678C168.213 8.15367 168.652 8.5452 168.991 9.04237C169.33 9.53955 169.581 10.0989 169.744 10.7203L169.142 10.7576C168.916 9.87514 168.52 9.19152 167.955 8.70678C167.403 8.22203 166.662 7.97966 165.733 7.97966C164.628 7.97966 163.743 8.39604 163.078 9.22881C162.425 10.0492 162.099 11.1678 162.099 12.5847C162.099 14.0017 162.425 15.1266 163.078 15.9593C163.743 16.7797 164.628 17.1898 165.733 17.1898C166.662 17.1898 167.422 16.9288 168.012 16.4068C168.614 15.8723 169.01 15.139 169.198 14.2068L169.801 14.2627C169.65 14.9339 169.399 15.5305 169.048 16.0525C168.696 16.5746 168.244 16.991 167.692 17.3017C167.139 17.6 166.486 17.7492 165.733 17.7492Z" fill="#6E6E6E"/>
<path d="M175.365 17.7492C174.549 17.7492 173.846 17.6124 173.256 17.339C172.666 17.0655 172.202 16.6927 171.863 16.2203C171.536 15.748 171.354 15.2198 171.317 14.6356L171.9 14.561C171.938 15.3441 172.264 15.978 172.88 16.4627C173.507 16.9475 174.336 17.1898 175.365 17.1898C176.37 17.1898 177.123 17.0158 177.625 16.6678C178.14 16.3198 178.397 15.8102 178.397 15.139C178.397 14.7785 178.322 14.4678 178.171 14.2068C178.021 13.9333 177.707 13.6972 177.23 13.4983C176.753 13.287 176.025 13.1006 175.045 12.939C174.116 12.7774 173.407 12.5847 172.917 12.361C172.428 12.1249 172.095 11.839 171.919 11.5034C171.743 11.1554 171.656 10.739 171.656 10.2542C171.656 9.39661 171.963 8.71299 172.578 8.20339C173.206 7.68136 174.028 7.42034 175.045 7.42034C175.761 7.42034 176.37 7.55706 176.872 7.83051C177.387 8.09152 177.795 8.44576 178.096 8.89322C178.41 9.32825 178.617 9.81299 178.718 10.3475L178.134 10.4593C178.071 10.0243 177.914 9.62034 177.663 9.24746C177.424 8.86215 177.085 8.55763 176.646 8.3339C176.207 8.09774 175.673 7.97966 175.045 7.97966C174.204 7.97966 173.526 8.17853 173.011 8.57627C172.509 8.96158 172.258 9.5209 172.258 10.2542C172.258 10.6893 172.34 11.0435 172.503 11.3169C172.679 11.5904 172.986 11.8141 173.426 11.9881C173.865 12.1497 174.493 12.2989 175.309 12.4356C176.251 12.5847 176.985 12.7774 177.512 13.0136C178.052 13.2373 178.435 13.5232 178.661 13.8712C178.887 14.2068 179 14.6169 179 15.1017C179 15.6734 178.856 16.1582 178.567 16.5559C178.291 16.9412 177.883 17.2395 177.343 17.4508C176.803 17.6497 176.144 17.7492 175.365 17.7492Z" fill="#6E6E6E"/>
<path d="M15.6834 5.36879H8.63023L5.28381 15.144H0.753282L10.8955 21.6271L15.6834 5.36879Z" fill="#7BF0DF"/>
<path d="M14.4478 16.2583H21.5011L24.8475 6.48307H29.378L19.2358 0L14.4478 16.2583Z" fill="#7BF0DF"/>
</svg>
